<?xml version="1.0" standalone="no"?><!DOCTYPE svg PUBLIC "-//W3C//DTD SVG 1.1//EN" "http://www.w3.org/Graphics/SVG/1.1/DTD/svg11.dtd"><svg t="1576165662444" class="icon" viewBox="0 0 1024 1024" version="1.1" xmlns="http://www.w3.org/2000/svg" p-id="50156" xmlns:xlink="http://www.w3.org/1999/xlink" width="48" height="48"><defs><style type="text/css"></style></defs><path d="M414.764 498.138c-4.094-8.188-13-12.844-22.094-11.562L181.58 516.73a21.496 21.496 0 0 0-12.062 6.032L48.926 643.4c-8.344 8.344-8.344 21.842 0 30.154l90.436 90.466c8.344 8.312 21.844 8.312 30.156 0l241.246-241.26a21.344 21.344 0 0 0 4-24.622zM507.262 842.428l30.156-211.09c1.312-9.094-3.376-17.968-11.562-22.094a21.34 21.34 0 0 0-24.624 4L259.984 854.49c-8.312 8.312-8.312 21.812 0 30.156l90.468 90.464c8.344 8.312 21.842 8.312 30.156 0l120.624-120.622a21.214 21.214 0 0 0 6.03-12.06z" fill="#DA4453" p-id="50157"></path><path d="M732.444 186.238a21.254 21.254 0 0 0-14.75-15.156l-93.778-26.876a21.288 21.288 0 0 0-20.938 5.438l-87.188 87.154a21.266 21.266 0 0 0-5.656 19.968 21.088 21.088 0 0 0 5.656 10.188 21.33 21.33 0 0 0 8.344 5.156l90.468 30.156a21.27 21.27 0 0 0 21.812-5.156l90.464-90.468a21.252 21.252 0 0 0 5.566-20.404zM879.786 400.078l-26.842-93.75a21.348 21.348 0 0 0-15.156-14.78 21.388 21.388 0 0 0-20.438 5.562l-90.468 90.466a21.348 21.348 0 0 0-5.156 21.812l30.156 90.466a21.33 21.33 0 0 0 5.156 8.344 21.4 21.4 0 0 0 10.188 5.688 21.356 21.356 0 0 0 19.968-5.688l87.186-87.156a21.39 21.39 0 0 0 5.406-20.964z" fill="#434A54" p-id="50158"></path><path d="M997.284 138.206c30.312-61.56 34.876-103.592 13.5-124.966-21.376-21.374-63.438-16.842-124.998 13.5-47.06 23.188-97.592 58.28-128.748 89.436L6.27 866.99c-4 4-6.25 9.406-6.25 15.062s2.25 11.094 6.25 15.094l120.624 120.59c8.312 8.344 21.812 8.344 30.156 0l750.768-750.782c31.154-31.156 66.278-81.686 89.466-128.748z" fill="#E6E9ED" p-id="50159"></path><path d="M907.816 266.954c31.154-31.156 66.28-81.686 89.466-128.748 30.312-61.56 34.876-103.592 13.5-124.966-21.376-21.374-63.438-16.842-124.998 13.5-47.06 23.188-97.592 58.28-128.748 89.436l150.78 150.778z" fill="#ED5564" p-id="50160"></path><path d="M157.048 1017.736l15.062-15.062-150.778-150.778-15.062 15.094c-4 4-6.25 9.406-6.25 15.062s2.25 11.094 6.25 15.094l120.624 120.59c8.312 8.344 21.81 8.344 30.154 0z" fill="#FFCE54" p-id="50161"></path><path d="M81.662 972.546l-30.156-30.156 30.156-30.154L111.814 942.39z" fill="#F6BB42" p-id="50162"></path><path d="M199.672 824.334c-8.312-8.344-8.312-21.844 0-30.156l241.246-241.246c8.344-8.312 21.844-8.312 30.156 0 8.344 8.344 8.344 21.844 0 30.156L229.828 824.334c-8.312 8.312-21.812 8.312-30.156 0z" fill="#ED5564" p-id="50163"></path><path d="M787.194 236.798c-8.312-8.312-21.812-8.312-30.156 0l-120.622 120.624c-8.312 8.344-8.312 21.844 0 30.156 8.342 8.344 21.842 8.344 30.154 0l120.624-120.624c8.344-8.312 8.344-21.812 0-30.156z" fill="#656D78" p-id="50164"></path><path d="M997.284 138.206c30.312-61.56 34.876-103.592 13.5-124.966a40.728 40.728 0 0 0-8.562-6.562c13.376 23.156 6.688 62.25-20.032 116.466-23.188 47.062-58.312 97.592-89.436 128.748L141.954 1002.674c-8.312 8.312-21.812 8.312-30.156 0l-60.312-60.31-45.216-45.248v0.032l120.624 120.59c8.312 8.344 21.812 8.344 30.156 0l750.768-750.782c31.154-31.158 66.278-81.688 89.466-128.75z" fill="#FFFFFF" opacity=".2" p-id="50165"></path></svg>